<svg width="50" height="50" viewBox="0 0 50 50" fill="none" xmlns="http://www.w3.org/2000/svg">
<rect width="50" height="50" rx="5" fill="url(#paint0_linear_1244_546)"/>
<path d="M38.65 27.9842C38.5665 27.7512 38.4684 27.5237 38.3563 27.303L33.1575 15.4755C33.1083 15.3616 33.0379 15.2581 32.95 15.1705C32.5786 14.799 32.1376 14.5042 31.6522 14.3032C31.1668 14.1021 30.6466 13.9986 30.1213 13.9986C29.5959 13.9986 29.0757 14.1021 28.5903 14.3032C28.1049 14.5042 27.6639 14.799 27.2925 15.1705C27.1056 15.3576 27.0005 15.6111 27 15.8755V19.0005H23V15.8755C23.0001 15.7441 22.9743 15.614 22.9241 15.4926C22.8739 15.3712 22.8003 15.2609 22.7075 15.168C22.3361 14.7965 21.8951 14.5017 21.4097 14.3007C20.9243 14.0996 20.4041 13.9961 19.8788 13.9961C19.3534 13.9961 18.8332 14.0996 18.3478 14.3007C17.8624 14.5017 17.4214 14.7965 17.05 15.168C16.9621 15.2556 16.8917 15.3591 16.8425 15.473L11.6438 27.3005C11.5316 27.5212 11.4335 27.7487 11.35 27.9817C11.0556 28.8054 10.9449 29.6835 11.0256 30.5544C11.1063 31.4254 11.3764 32.2682 11.8171 33.0238C12.2577 33.7794 12.8583 34.4295 13.5766 34.9285C14.2949 35.4276 15.1137 35.7636 15.9756 35.9129C16.8374 36.0623 17.7215 36.0214 18.5659 35.7931C19.4103 35.5648 20.1945 35.1547 20.8637 34.5914C21.5329 34.0282 22.0709 33.3254 22.4399 32.5324C22.8089 31.7393 23.0001 30.8752 23 30.0005V21.0005H27V30.0005C26.9996 30.8753 27.1904 31.7396 27.5592 32.5329C27.928 33.3261 28.4658 34.0292 29.1349 34.5927C29.804 35.1562 30.5882 35.5667 31.4326 35.7952C32.277 36.0237 33.1612 36.0648 34.0232 35.9156C34.8852 35.7664 35.7041 35.4306 36.4226 34.9316C37.1411 34.4325 37.7418 33.7824 38.1826 33.0268C38.6234 32.2712 38.8937 31.4283 38.9744 30.5573C39.0551 29.6862 38.9444 28.808 38.65 27.9842ZM18.5888 16.4692C18.9221 16.1885 19.3381 16.0244 19.7734 16.0018C20.2086 15.9793 20.6394 16.0995 21 16.3442V25.533C20.2193 24.8319 19.268 24.3484 18.2415 24.1307C17.215 23.9131 16.1493 23.9691 15.1513 24.293L18.5888 16.4692ZM17 34.0005C16.2089 34.0005 15.4355 33.7659 14.7777 33.3264C14.1199 32.8868 13.6072 32.2621 13.3045 31.5312C13.0017 30.8003 12.9225 29.9961 13.0769 29.2201C13.2312 28.4442 13.6122 27.7315 14.1716 27.1721C14.731 26.6127 15.4437 26.2317 16.2196 26.0773C16.9956 25.923 17.7998 26.0022 18.5307 26.305C19.2616 26.6077 19.8864 27.1204 20.3259 27.7782C20.7654 28.436 21 29.2094 21 30.0005C21 31.0614 20.5786 32.0788 19.8284 32.8289C19.0783 33.5791 18.0609 34.0005 17 34.0005ZM29 16.343C29.3606 16.0982 29.7914 15.978 30.2266 16.0006C30.6619 16.0231 31.0778 16.1873 31.4112 16.468L34.8487 24.2905C33.8506 23.9667 32.7849 23.911 31.7584 24.1288C30.7318 24.3467 29.7806 24.8305 29 25.5317V16.343ZM33 34.0005C32.2089 34.0005 31.4355 33.7659 30.7777 33.3264C30.1199 32.8868 29.6072 32.2621 29.3045 31.5312C29.0017 30.8003 28.9225 29.9961 29.0769 29.2201C29.2312 28.4442 29.6122 27.7315 30.1716 27.1721C30.731 26.6127 31.4437 26.2317 32.2196 26.0773C32.9956 25.923 33.7998 26.0022 34.5307 26.305C35.2616 26.6077 35.8864 27.1204 36.3259 27.7782C36.7654 28.436 37 29.2094 37 30.0005C37 31.0614 36.5786 32.0788 35.8284 32.8289C35.0783 33.5791 34.0609 34.0005 33 34.0005Z" fill="black"/>
<defs>
<linearGradient id="paint0_linear_1244_546" x1="0.942627" y1="-1.33618e-06" x2="49.0574" y2="50" gradientUnits="userSpaceOnUse">
<stop stop-color="white"/>
<stop offset="1" stop-color="#DEDEDE"/>
</linearGradient>
</defs>
</svg>
